<?xml version="1.0" encoding="utf-8"?>
<!-- Generator: Adobe Illustrator 19.1.1, SVG Export Plug-In . SVG Version: 6.00 Build 0)  -->
<svg version="1.1"  xmlns="http://www.w3.org/2000/svg" xmlns:xlink="http://www.w3.org/1999/xlink" x="0px" y="0px"
	 viewBox="0 0 48 48" enable-background="new 0 0 48 48" xml:space="preserve">
<path fill="#9FA8DA" d="M1.2,31.2c0,0,3.2,0.9,4.6,0.9S40.5,32,42,32c1.5,0,3.4-0.4,4.7-0.7c0.8-0.2,1.3-0.9,1.3-1.6V25
	c0-4.7-12-7-12-7s-6.8-7-17-7S4,19,4,19l-2.8,0.8C0.5,19.9,0,20.5,0,21.2v8.6C0,30.5,0.5,31.1,1.2,31.2z"/>
<polygon fill="#FF1744" points="6,22 0,22 0,25 2,25 7,23 "/>
<path fill="#37474F" d="M35,20c-0.1-0.3-0.4-0.6-0.4-0.6C34.5,19.3,28.2,13,19,13c-5.2,0-8.8,2.3-10.9,4.3L9,20H35z"/>
<path fill="#212121" d="M20,13v7h2v-6.8C21.4,13.1,20.7,13.1,20,13z"/>
<rect x="20" y="20" fill="#7986CB" width="2" height="12"/>
<path fill="#37474F" d="M5,32c0-2.8,2.2-5,5-5c2.8,0,5,2.2,5,5c0,2.8-2.2,5-5,5C7.2,37,5,34.8,5,32z M38,37c2.8,0,5-2.2,5-5
	c0-2.8-2.2-5-5-5c-2.8,0-5,2.2-5,5C33,34.8,35.2,37,38,37z"/>
<path fill="#90A4AE" d="M8,32c0-1.1,0.9-2,2-2s2,0.9,2,2c0,1.1-0.9,2-2,2S8,33.1,8,32z M38,34c1.1,0,2-0.9,2-2c0-1.1-0.9-2-2-2
	s-2,0.9-2,2C36,33.1,36.9,34,38,34z"/>
<path fill="#B3E5FC" d="M45,21.2c-3.1-0.7-4-0.2-4-0.2c0,2.6,7,4,7,4C48,23.5,46.7,22.2,45,21.2z"/>
</svg>
