<?xml version="1.0" encoding="iso-8859-1"?>
<!-- Generator: Adobe Illustrator 19.1.1, SVG Export Plug-In . SVG Version: 6.00 Build 0)  -->
<svg version="1.1"  xmlns="http://www.w3.org/2000/svg" xmlns:xlink="http://www.w3.org/1999/xlink" x="0px" y="0px"
	 viewBox="0 0 48 48" style="enable-background:new 0 0 48 48;" xml:space="preserve">
<g>
	<path style="fill:none;stroke:#455A64;stroke-width:2;stroke-miterlimit:10;" d="M26,14V8c0,0,4.667-3.5,17,3"/>
	<path style="fill:none;stroke:#455A64;stroke-width:2;stroke-miterlimit:10;" d="M22,14V8c0,0-4.667-3.5-17,3"/>
</g>
<g>
	<path style="fill:#455A64;" d="M12,34c0-0.553-0.447-1-1-1H7c-0.553,0-1,0.447-1,1v6c0,0.553,0.447,1,1,1h4c0.553,0,1-0.447,1-1V34
		z"/>
	<path style="fill:#455A64;" d="M42,34c0-0.553-0.447-1-1-1h-4c-0.553,0-1,0.447-1,1v6c0,0.553,0.447,1,1,1h4c0.553,0,1-0.447,1-1
		V34z"/>
</g>
<g>
	<path style="fill:#82B1FF;" d="M37,20c0,0,0.344-1,1-1s3,0.188,3,1v1.2c0,0.442-0.358,0.8-0.8,0.8H37V20z"/>
	<path style="fill:#82B1FF;" d="M11,20c0,0-0.344-1-1-1s-3,0.188-3,1v1.2C7,21.642,7.358,22,7.8,22H11V20z"/>
	<g>
		<path style="fill:#82B1FF;" d="M38,22l-2-6c-0.722-1.684-2.146-2.238-3.962-2.475C30.058,13.267,27.229,13,24,13
			c-3.229,0-6.058,0.267-8.038,0.525C14.146,13.762,12.722,14.316,12,16l-2,6c0,0-4,1.833-4,6v8.132
			c0,0.503,0.368,0.926,0.867,0.991C8.922,37.391,14.633,38,24,38s15.078-0.609,17.133-0.877C41.632,37.058,42,36.635,42,36.132V28
			C42,23.833,38,22,38,22z"/>
	</g>
</g>
<path style="fill:#455A64;" d="M31.901,34.126C31.331,33.414,30.469,33,29.558,33H18.442c-0.911,0-1.773,0.414-2.343,1.126
	l-2.856,3.57C16.028,37.866,19.608,38,24,38s7.972-0.134,10.757-0.304L31.901,34.126z"/>
<g>
	<g>
		<path style="fill:#FFFFFF;" d="M33,26l2.484,1.656C35.82,27.88,36.216,28,36.62,28h3.252c0.665,0,1.134-0.637,0.966-1.281
			c-0.17-0.652-0.459-1.215-0.796-1.694C36.846,25.175,33,26,33,26z"/>
	</g>
	<g>
		<path style="fill:#FFFFFF;" d="M15,26l-2.484,1.656C12.18,27.88,11.784,28,11.38,28H8.128c-0.665,0-1.134-0.637-0.966-1.281
			c0.17-0.652,0.459-1.215,0.796-1.694C11.154,25.175,15,26,15,26z"/>
	</g>
</g>
<g>
	<path style="fill:#37474F;" d="M24,26c0,0-6.515-0.001-8,1c0,0,5.687,0.011,6.516,0.357C23.344,27.702,24,29,24,29
		s0.656-1.298,1.484-1.643C26.313,27.011,32,27,32,27C30.515,25.999,24,26,24,26z"/>
	<path style="fill:#37474F;" d="M35.892,22l-1.76-5.28c-0.241-0.532-0.629-0.987-2.352-1.211C30,15.276,27.207,15,24,15
		c-3.207,0-6,0.276-7.779,0.508c-1.723,0.225-2.111,0.679-2.352,1.211L12.108,22H35.892z"/>
</g>
<g>
	<path style="fill:#1E88E5;" d="M8,32v1.438c0,1.036,0.786,1.898,1.818,1.992c0.64,0.059,1.368,0.119,2.182,0.177v-2.941L8,32z"/>
	<path style="fill:#1E88E5;" d="M40,32v1.438c0,1.036-0.786,1.898-1.818,1.992c-0.64,0.059-1.368,0.119-2.182,0.177v-2.941L40,32z"
		/>
</g>
</svg>
