<?xml version="1.0" encoding="utf-8"?>
<!-- Generator: Adobe Illustrator 19.1.1, SVG Export Plug-In . SVG Version: 6.00 Build 0)  -->
<svg version="1.1"  xmlns="http://www.w3.org/2000/svg" xmlns:xlink="http://www.w3.org/1999/xlink" x="0px" y="0px"
	 viewBox="0 0 48 48" enable-background="new 0 0 48 48" xml:space="preserve">
<path fill="#455A64" d="M3,28H1c-0.6,0-1-0.5-1-1v-9c0-0.5,0.4-1,1-1h2c0.5,0,1,0.5,1,1v9C4,27.5,3.5,28,3,28z"/>
<path fill="#FFC107" d="M37,19l-3.5-7.7c-0.3-0.8-1.1-1.3-1.9-1.3H5.8c-0.5,0-0.9,0.3-1,0.8C4.3,12.7,3.1,16.5,3,27l0,0v3l3,2l4,1h1
	h30l2.2-1c1.7,0,3.6-1.7,4.4-2.5c0.3-0.3,0.4-0.7,0.4-1.1v-5.7c0-0.6-0.3-1.1-0.8-1.4C45.7,20.7,42.8,19.4,37,19z"/>
<path fill="#37474F" d="M6,32l3,1h2h30l2.2-1c1.7,0,3.6-1.7,4.4-2.5c0.3-0.3,0.4-0.7,0.4-1.1V27h-3l-0.5-0.9c-0.3-0.6-1-1.1-1.7-1.1
	h-5.6c-0.7,0-1.4,0.4-1.7,1.1L32,31H19l-2-5.1c-0.4-0.5-1-0.9-1.6-0.9H8.2c-0.7,0-1.4,0.4-1.7,1.1L6,27H3v3L6,32z"/>
<path fill="#546E7A" d="M7,33.5C7,31,9,29,11.5,29c2.5,0,4.5,2,4.5,4.5c0,2.5-2,4.5-4.5,4.5C9,38,7,36,7,33.5z M39.5,38
	c2.5,0,4.5-2,4.5-4.5c0-2.5-2-4.5-4.5-4.5C37,29,35,31,35,33.5C35,36,37,38,39.5,38z"/>
<path fill="#90A4AE" d="M9,33.5c0-1.4,1.1-2.5,2.5-2.5s2.5,1.1,2.5,2.5c0,1.4-1.1,2.5-2.5,2.5S9,34.9,9,33.5z M39.5,36
	c1.4,0,2.5-1.1,2.5-2.5c0-1.4-1.1-2.5-2.5-2.5S37,32.1,37,33.5C37,34.9,38.1,36,39.5,36z"/>
<path fill="#FFB300" d="M25,31h-2V12h2V31z M15,12h-2v13h2V12z"/>
<path fill="#00B0FF" d="M47.2,21.4c-0.3-0.1-0.7-0.3-1.2-0.5V24c0,0.6,0.5,1,1,1h1v-2.3C48,22.1,47.7,21.6,47.2,21.4z"/>
<path fill="#37474F" d="M13,12v7H5.4c0.3-3.7,0.8-5.7,1.1-7H13z M31.7,12L31.7,12C31.7,12,31.7,12,31.7,12L25,12v7h9.8L31.7,12
	L31.7,12z M15,12v7h8v-7H15z"/>
</svg>
