<?xml version="1.0" encoding="iso-8859-1"?>
<!-- Generator: Adobe Illustrator 19.1.1, SVG Export Plug-In . SVG Version: 6.00 Build 0)  -->
<svg version="1.1" id="Layer_1" xmlns="http://www.w3.org/2000/svg" xmlns:xlink="http://www.w3.org/1999/xlink" x="0px" y="0px"
	 viewBox="0 0 48 48" style="enable-background:new 0 0 48 48;" xml:space="preserve">
<path style="fill:#4CAF50;" d="M45,19.596L40.875,10.8C40.431,9.485,39.299,8,37.5,8H7c-3.038,0-4,0.963-4,4v22c0,0,0,2,2,2
	s35.999,0,37.999,0C45,36,45,34,45,34L45,19.596z"/>
<g>
	<path style="fill:#388E3C;" d="M37.05,12c0.017,0.036,0.032,0.07,0.041,0.097l0.041,0.131l0.058,0.124L41,20.447V21H7v-9H37.05
		 M37.5,10h-31C5.67,10,5,10.67,5,11.5v10C5,22.33,5.67,23,6.5,23h35c0.83,0,1.5-0.67,1.5-1.5V20l-4-8.5C39,11.5,38.531,10,37.5,10
		L37.5,10z"/>
</g>
<path style="fill:#004D40;" d="M43,21.5c0,0.83-0.67,1.5-1.5,1.5h-9c-0.83,0-1.5-0.67-1.5-1.5v-10c0-0.83,0.67-1.5,1.5-1.5h5
	c1.031,0,1.5,1.5,1.5,1.5l4,8.5V21.5z"/>
<path style="fill:#5D4037;" d="M40,36c0,2.762-2.239,5-5,5c-2.762,0-5-2.238-5-5c0-2.762,2.238-5,5-5C37.761,31,40,33.238,40,36"/>
<path style="fill:#5D4037;" d="M17,36c0,2.762-2.239,5-5,5c-2.762,0-5-2.238-5-5c0-2.762,2.238-5,5-5C14.761,31,17,33.238,17,36"/>
<path style="fill:#BCAAA4;" d="M37,36c0,1.106-0.896,2-2,2c-1.106,0-2-0.894-2-2c0-1.105,0.894-2,2-2C36.104,34,37,34.895,37,36"/>
<path style="fill:#BCAAA4;" d="M14,36c0,1.106-0.896,2-2,2c-1.106,0-2-0.894-2-2c0-1.105,0.894-2,2-2C13.105,34,14,34.895,14,36"/>
<path style="fill:#FF3D00;" d="M3.5,29H3v4h0.5C4.328,33,5,32.328,5,31.5v-1C5,29.672,4.328,29,3.5,29z"/>
<path style="fill:#FFC107;" d="M46,29.5c0-0.828-0.68-1.5-1.518-1.5h-0.963C42.679,28,42,28.672,42,29.5v2
	c0,0.828,0.679,1.5,1.518,1.5h0.963C45.32,33,46,32.328,46,31.5V29.5z"/>
<path style="fill:#388E3C;" d="M19,23L19,23c-0.552,0-1-0.448-1-1V11c0-0.552,0.448-1,1-1h0c0.552,0,1,0.448,1,1v11
	C20,22.552,19.552,23,19,23z"/>
</svg>
